<svg xmlns="http://www.w3.org/2000/svg" width="18.6" height="25.607" viewBox="0 0 18.6 25.607">
  <g id="Layer_11" data-name="Layer 11" transform="translate(-7.7 0.307)">
    <path id="Контур_1" data-name="Контур 1" d="M25.625,4.687h-.457l-.3-1.267a.378.378,0,0,0-.364-.3h-.375V1.953a.383.383,0,0,0-.375-.391h-.375V.39A.4.4,0,0,0,23.2.058a.362.362,0,0,0-.365-.017L19.911,1.562H10.25a.383.383,0,0,0-.375.391V3.125H9.5a.378.378,0,0,0-.364.3l-.3,1.267H8.375A.383.383,0,0,0,8,5.078V7.422a.383.383,0,0,0,.375.391H9.533l.445,5.109v.005l.276,3.15L11,24.644a.381.381,0,0,0,.375.355h11.25A.381.381,0,0,0,23,24.644l.746-8.568.276-3.15v-.005l.445-5.109h1.158A.383.383,0,0,0,26,7.422V5.078A.383.383,0,0,0,25.625,4.687Zm-3-3.665v.54H21.589Zm-12,1.321h12.75v.781H10.625ZM9.793,3.906H24.207l.188.781H9.605ZM23,16.015l-.24,2.734H11.241L11,16.015l-.238-2.734h4.583l1.39,1.448a.364.364,0,0,0,.53,0l1.39-1.448h4.582Zm-.716,8.2H11.718l-.409-4.687H22.692ZM23.307,12.5H18.5a.368.368,0,0,0-.265.114L17,13.9l-1.235-1.286A.368.368,0,0,0,15.5,12.5H10.695l-.407-4.687H23.716ZM25.25,7.031H8.75V5.468h16.5Z" stroke="#000" stroke-width="0.6"/>
  </g>
</svg>
